<svg width="30" height="30" viewBox="0 0 30 30" fill="none" xmlns="http://www.w3.org/2000/svg">
<path d="M30 15C30 23.2843 23.2843 30 15 30C6.71573 30 0 23.2843 0 15C0 6.71573 6.71573 0 15 0C23.2843 0 30 6.71573 30 15Z" fill="url(#paint0_linear_49_37)"/>
<path d="M15.4564 15.4564C15.7085 15.2044 15.7085 14.7956 15.4564 14.5436L11.3485 10.4356C11.0964 10.1836 10.6877 10.1836 10.4356 10.4356C10.1836 10.6877 10.1836 11.0964 10.4356 11.3485L14.0871 15L10.4356 18.6515C10.1836 18.9036 10.1836 19.3123 10.4356 19.5644C10.6877 19.8164 11.0964 19.8164 11.3485 19.5644L15.4564 15.4564ZM0 15.6455L15 15.6455V14.3545L0 14.3545L0 15.6455Z" fill="white"/>
<defs>
<linearGradient id="paint0_linear_49_37" x1="30" y1="13" x2="3.57628e-06" y2="13" gradientUnits="userSpaceOnUse">
<stop stop-color="#6700FF"/>
<stop offset="0.986682" stop-color="#B153DD"/>
</linearGradient>
</defs>
</svg>
