<svg width="112" height="42" viewBox="0 0 112 42" fill="none" xmlns="http://www.w3.org/2000/svg">
<path d="M19.607 13.9756V20.4748H30.9892V25.0417H19.607V34H13.9158V9.40869H32.4998V13.9756H19.607ZM48.1565 25.2877V34H42.4653V25.2174L32.945 9.40869H38.9874L45.5568 20.3343L52.1262 9.40869H57.712L48.1565 25.2877ZM70.9388 34.4216C68.386 34.4216 66.0791 33.8712 64.0181 32.7704C61.9806 31.6697 60.3763 30.1591 59.2053 28.2386C58.0577 26.2947 57.4839 24.1166 57.4839 21.7043C57.4839 19.2921 58.0577 17.1257 59.2053 15.2052C60.3763 13.2613 61.9806 11.739 64.0181 10.6383C66.0791 9.53751 68.386 8.98713 70.9388 8.98713C73.4916 8.98713 75.7868 9.53751 77.8244 10.6383C79.862 11.739 81.4663 13.2613 82.6373 15.2052C83.8083 17.1257 84.3938 19.2921 84.3938 21.7043C84.3938 24.1166 83.8083 26.2947 82.6373 28.2386C81.4663 30.1591 79.862 31.6697 77.8244 32.7704C75.7868 33.8712 73.4916 34.4216 70.9388 34.4216ZM70.9388 29.5736C72.3909 29.5736 73.7024 29.2457 74.8734 28.5899C76.0445 27.9107 76.9579 26.9739 77.6136 25.7795C78.2928 24.585 78.6324 23.2267 78.6324 21.7043C78.6324 20.182 78.2928 18.8237 77.6136 17.6292C76.9579 16.4348 76.0445 15.5097 74.8734 14.8539C73.7024 14.1747 72.3909 13.8351 70.9388 13.8351C69.4868 13.8351 68.1752 14.1747 67.0042 14.8539C65.8332 15.5097 64.9081 16.4348 64.2289 17.6292C63.5732 18.8237 63.2453 20.182 63.2453 21.7043C63.2453 23.2267 63.5732 24.585 64.2289 25.7795C64.9081 26.9739 65.8332 27.9107 67.0042 28.5899C68.1752 29.2457 69.4868 29.5736 70.9388 29.5736ZM99.3154 9.40869C101.494 9.40869 103.379 9.77171 104.971 10.4977C106.587 11.2238 107.829 12.2543 108.695 13.5892C109.562 14.9242 109.995 16.505 109.995 18.3318C109.995 20.1352 109.562 21.7161 108.695 23.0744C107.829 24.4094 106.587 25.4399 104.971 26.1659C103.379 26.8685 101.494 27.2198 99.3154 27.2198H94.3621V34H88.6709V9.40869H99.3154ZM98.9993 22.5826C100.709 22.5826 102.009 22.2196 102.899 21.4936C103.789 20.7441 104.234 19.6902 104.234 18.3318C104.234 16.95 103.789 15.8961 102.899 15.1701C102.009 14.4206 100.709 14.0459 98.9993 14.0459H94.3621V22.5826H98.9993Z" fill="#2E353B"/>
<circle cx="4.5" cy="29.5" r="4.5" fill="#6700FF"/>
</svg>
