<svg width="15" height="15" viewBox="0 0 15 15" fill="none" xmlns="http://www.w3.org/2000/svg">
<path d="M8.22796 1.70343C10.8833 2.03744 12.9625 4.11662 13.2965 6.77196C13.3466 7.19782 13.7056 7.50678 14.1232 7.50678C14.1566 7.50678 14.19 7.50678 14.2234 7.49843C14.6826 7.43998 15.0083 7.02247 14.9498 6.56321C14.7446 4.90505 13.9916 3.3629 12.8101 2.18146C11.6287 1.00002 10.0865 0.246954 8.42836 0.0417518C7.9691 -0.008349 7.55159 0.317307 7.50149 0.776564C7.44304 1.23582 7.7687 1.65333 8.22796 1.70343ZM8.54526 3.46531C8.1027 3.34841 7.64345 3.61561 7.52654 4.06652C7.40964 4.51743 7.67685 4.96833 8.12775 5.08524C8.55981 5.19739 8.95405 5.42295 9.26968 5.73859C9.58532 6.05422 9.81088 6.44846 9.92303 6.88052C9.97866 7.09518 10.1171 7.27901 10.3081 7.39172C10.4991 7.50442 10.7269 7.53679 10.9418 7.48173C11.3843 7.36482 11.6515 6.90557 11.543 6.46301C11.355 5.74192 10.9781 5.084 10.4512 4.55707C9.92427 4.03015 9.26635 3.65328 8.54526 3.46531ZM13.5303 10.2289L11.4094 9.98677C11.16 9.95748 10.9072 9.98509 10.67 10.0675C10.4328 10.15 10.2174 10.2851 10.0399 10.4627L8.50351 11.9992C6.13306 10.7936 4.20634 8.86686 3.00077 6.49641L4.54554 4.95163C4.9046 4.59258 5.07995 4.09157 5.0215 3.58221L4.77935 1.47798C4.73201 1.07064 4.53652 0.69493 4.23011 0.422391C3.92369 0.149852 3.52775 -0.000486191 3.11767 1.18128e-06L1.6731 1.18128e-06C0.72953 1.18128e-06 -0.0553836 0.784914 0.00306741 1.72848C0.445625 8.8595 6.14877 14.5543 13.2714 14.9969C14.215 15.0553 14.9999 14.2704 14.9999 13.3268V11.8822C15.0083 11.0389 14.3737 10.3291 13.5303 10.2289Z" fill="white"/>
</svg>
